<?xml version="1.0" encoding="UTF-8" standalone="no"?>
<!DOCTYPE svg PUBLIC "-//W3C//DTD SVG 1.1//EN" "http://www.w3.org/Graphics/SVG/1.1/DTD/svg11.dtd">
<svg width="100%" height="100%" viewBox="0 0 512 256" version="1.1" xmlns="http://www.w3.org/2000/svg" xmlns:xlink="http://www.w3.org/1999/xlink" xml:space="preserve" xmlns:serif="http://www.serif.com/" style="fill-rule:evenodd;clip-rule:evenodd;stroke-linejoin:round;stroke-miterlimit:2;">
    <g transform="matrix(1.06692,0,0,1.31943,-19.2566,-62.4241)">
        <ellipse cx="257.991" cy="144.323" rx="239.942" ry="97.012" style="fill:rgb(115,199,199);"/>
    </g>
    <g transform="matrix(1,0,0,1,-83.144,44.5913)">
        <g transform="matrix(75,0,0,75,115.865,108.421)">
            <path d="M0.024,-0L0.024,-0.012C0.057,-0.012 0.082,-0.021 0.1,-0.04C0.11,-0.05 0.117,-0.063 0.121,-0.079C0.125,-0.095 0.126,-0.12 0.126,-0.153L0.126,-0.513C0.126,-0.548 0.124,-0.573 0.12,-0.589C0.116,-0.606 0.109,-0.619 0.098,-0.63C0.089,-0.638 0.078,-0.645 0.067,-0.648C0.056,-0.652 0.042,-0.655 0.024,-0.655L0.024,-0.667L0.336,-0.667L0.336,-0.655C0.318,-0.654 0.303,-0.652 0.292,-0.648C0.281,-0.644 0.271,-0.638 0.262,-0.629C0.251,-0.619 0.243,-0.605 0.239,-0.589C0.235,-0.573 0.233,-0.547 0.233,-0.513L0.233,-0.231C0.233,-0.188 0.235,-0.156 0.237,-0.135C0.239,-0.114 0.243,-0.096 0.25,-0.083C0.261,-0.06 0.278,-0.042 0.301,-0.031C0.323,-0.021 0.353,-0.015 0.39,-0.015C0.429,-0.015 0.461,-0.02 0.488,-0.03C0.514,-0.041 0.536,-0.057 0.553,-0.078C0.565,-0.093 0.574,-0.109 0.581,-0.128C0.589,-0.146 0.595,-0.171 0.602,-0.201L0.613,-0.2L0.607,-0L0.024,-0Z" style="fill:rgb(21,100,97);fill-rule:nonzero;"/>
        </g>
        <g transform="matrix(75,0,0,75,161.605,108.421)">
            <path d="M0.047,-0.329C0.047,-0.383 0.059,-0.434 0.082,-0.48C0.105,-0.527 0.14,-0.568 0.185,-0.603C0.218,-0.629 0.254,-0.648 0.293,-0.662C0.332,-0.676 0.371,-0.683 0.41,-0.683C0.46,-0.683 0.509,-0.672 0.556,-0.65C0.603,-0.628 0.644,-0.597 0.679,-0.557C0.736,-0.492 0.765,-0.418 0.765,-0.335C0.765,-0.293 0.757,-0.253 0.742,-0.214C0.727,-0.176 0.705,-0.14 0.677,-0.108C0.642,-0.069 0.6,-0.038 0.552,-0.016C0.504,0.006 0.454,0.017 0.401,0.017C0.35,0.017 0.3,0.006 0.253,-0.015C0.206,-0.036 0.165,-0.066 0.131,-0.105C0.104,-0.135 0.083,-0.17 0.068,-0.208C0.054,-0.247 0.047,-0.287 0.047,-0.329ZM0.165,-0.321C0.165,-0.227 0.191,-0.147 0.242,-0.083C0.265,-0.054 0.29,-0.032 0.315,-0.019C0.341,-0.006 0.371,0 0.405,0C0.439,0 0.469,-0.006 0.495,-0.019C0.521,-0.032 0.546,-0.053 0.569,-0.083C0.621,-0.148 0.646,-0.228 0.646,-0.323C0.646,-0.376 0.639,-0.425 0.625,-0.472C0.611,-0.519 0.591,-0.558 0.565,-0.591C0.545,-0.618 0.521,-0.637 0.496,-0.649C0.47,-0.661 0.44,-0.667 0.405,-0.667C0.371,-0.667 0.341,-0.661 0.315,-0.649C0.29,-0.637 0.267,-0.618 0.246,-0.591C0.22,-0.559 0.2,-0.519 0.186,-0.472C0.172,-0.425 0.165,-0.375 0.165,-0.321Z" style="fill:rgb(21,100,97);fill-rule:nonzero;"/>
        </g>
        <g transform="matrix(75,0,0,75,222.433,108.421)">
            <path d="M0.635,-0.667L0.641,-0.454L0.63,-0.453C0.607,-0.525 0.579,-0.579 0.543,-0.614C0.508,-0.65 0.466,-0.667 0.416,-0.667C0.377,-0.667 0.344,-0.66 0.316,-0.644C0.288,-0.628 0.262,-0.602 0.238,-0.567C0.189,-0.494 0.165,-0.411 0.165,-0.318C0.165,-0.273 0.171,-0.231 0.183,-0.191C0.194,-0.152 0.211,-0.117 0.234,-0.087C0.278,-0.028 0.331,0.001 0.394,0.001C0.418,0.001 0.442,-0.004 0.463,-0.015C0.485,-0.025 0.503,-0.039 0.517,-0.058C0.536,-0.083 0.546,-0.113 0.546,-0.148C0.546,-0.18 0.537,-0.203 0.52,-0.218C0.502,-0.232 0.474,-0.239 0.434,-0.239L0.434,-0.25L0.745,-0.25L0.745,-0.239C0.716,-0.237 0.696,-0.233 0.685,-0.227C0.673,-0.222 0.665,-0.213 0.659,-0.2C0.653,-0.185 0.65,-0.157 0.65,-0.114C0.65,-0.103 0.651,-0.084 0.652,-0.06L0.653,-0.048C0.64,-0.053 0.631,-0.055 0.625,-0.055C0.618,-0.055 0.609,-0.051 0.598,-0.044C0.57,-0.024 0.537,-0.009 0.5,0.001C0.462,0.011 0.423,0.017 0.381,0.017C0.324,0.017 0.272,0.007 0.226,-0.013C0.18,-0.032 0.142,-0.06 0.114,-0.097C0.092,-0.124 0.076,-0.157 0.064,-0.194C0.053,-0.232 0.047,-0.272 0.047,-0.314C0.047,-0.373 0.057,-0.427 0.078,-0.477C0.099,-0.527 0.128,-0.569 0.166,-0.601C0.197,-0.627 0.233,-0.648 0.273,-0.662C0.313,-0.676 0.356,-0.684 0.401,-0.684C0.427,-0.684 0.451,-0.681 0.473,-0.676C0.496,-0.671 0.519,-0.663 0.544,-0.652L0.573,-0.639C0.58,-0.636 0.587,-0.635 0.593,-0.635C0.606,-0.635 0.616,-0.645 0.623,-0.667L0.635,-0.667Z" style="fill:rgb(21,100,97);fill-rule:nonzero;"/>
        </g>
        <g transform="matrix(75,0,0,75,278.792,108.421)">
            <path d="M0.047,-0.329C0.047,-0.383 0.059,-0.434 0.082,-0.48C0.105,-0.527 0.14,-0.568 0.185,-0.603C0.218,-0.629 0.254,-0.648 0.293,-0.662C0.332,-0.676 0.371,-0.683 0.41,-0.683C0.46,-0.683 0.509,-0.672 0.556,-0.65C0.603,-0.628 0.644,-0.597 0.679,-0.557C0.736,-0.492 0.765,-0.418 0.765,-0.335C0.765,-0.293 0.757,-0.253 0.742,-0.214C0.727,-0.176 0.705,-0.14 0.677,-0.108C0.642,-0.069 0.6,-0.038 0.552,-0.016C0.504,0.006 0.454,0.017 0.401,0.017C0.35,0.017 0.3,0.006 0.253,-0.015C0.206,-0.036 0.165,-0.066 0.131,-0.105C0.104,-0.135 0.083,-0.17 0.068,-0.208C0.054,-0.247 0.047,-0.287 0.047,-0.329ZM0.165,-0.321C0.165,-0.227 0.191,-0.147 0.242,-0.083C0.265,-0.054 0.29,-0.032 0.315,-0.019C0.341,-0.006 0.371,0 0.405,0C0.439,0 0.469,-0.006 0.495,-0.019C0.521,-0.032 0.546,-0.053 0.569,-0.083C0.621,-0.148 0.646,-0.228 0.646,-0.323C0.646,-0.376 0.639,-0.425 0.625,-0.472C0.611,-0.519 0.591,-0.558 0.565,-0.591C0.545,-0.618 0.521,-0.637 0.496,-0.649C0.47,-0.661 0.44,-0.667 0.405,-0.667C0.371,-0.667 0.341,-0.661 0.315,-0.649C0.29,-0.637 0.267,-0.618 0.246,-0.591C0.22,-0.559 0.2,-0.519 0.186,-0.472C0.172,-0.425 0.165,-0.375 0.165,-0.321Z" style="fill:rgb(21,100,97);fill-rule:nonzero;"/>
        </g>
        <g transform="matrix(75,0,0,75,358.37,108.421)">
            <path d="M0.233,-0.356L0.58,-0.356L0.58,-0.513C0.58,-0.547 0.578,-0.571 0.574,-0.587C0.571,-0.603 0.564,-0.617 0.554,-0.627C0.545,-0.636 0.534,-0.643 0.522,-0.647C0.511,-0.652 0.496,-0.654 0.477,-0.655L0.477,-0.667L0.789,-0.667L0.789,-0.655C0.771,-0.654 0.755,-0.652 0.744,-0.647C0.732,-0.643 0.722,-0.636 0.713,-0.627C0.703,-0.617 0.696,-0.603 0.692,-0.587C0.688,-0.571 0.687,-0.546 0.687,-0.513L0.687,-0.153C0.687,-0.12 0.688,-0.096 0.692,-0.08C0.696,-0.064 0.703,-0.05 0.713,-0.04C0.722,-0.03 0.732,-0.024 0.744,-0.019C0.755,-0.015 0.771,-0.012 0.789,-0.011L0.789,-0L0.477,-0L0.477,-0.011C0.496,-0.012 0.511,-0.015 0.522,-0.019C0.534,-0.024 0.545,-0.03 0.554,-0.04C0.564,-0.05 0.571,-0.063 0.574,-0.079C0.578,-0.095 0.58,-0.12 0.58,-0.153L0.58,-0.333L0.233,-0.333L0.233,-0.153C0.233,-0.12 0.235,-0.095 0.239,-0.079C0.243,-0.063 0.25,-0.05 0.26,-0.04C0.269,-0.03 0.279,-0.024 0.29,-0.019C0.302,-0.015 0.317,-0.012 0.336,-0.011L0.336,-0L0.024,-0L0.024,-0.011C0.043,-0.012 0.058,-0.015 0.069,-0.019C0.081,-0.024 0.091,-0.03 0.1,-0.04C0.111,-0.05 0.118,-0.063 0.121,-0.079C0.125,-0.095 0.126,-0.12 0.126,-0.153L0.126,-0.513C0.126,-0.547 0.125,-0.571 0.121,-0.587C0.118,-0.603 0.111,-0.617 0.1,-0.627C0.091,-0.636 0.081,-0.643 0.069,-0.647C0.058,-0.652 0.042,-0.654 0.024,-0.655L0.024,-0.667L0.336,-0.667L0.336,-0.655C0.317,-0.654 0.302,-0.652 0.291,-0.647C0.279,-0.643 0.269,-0.636 0.26,-0.627C0.25,-0.617 0.243,-0.603 0.239,-0.587C0.235,-0.571 0.233,-0.546 0.233,-0.513L0.233,-0.356Z" style="fill:rgb(21,100,97);fill-rule:nonzero;"/>
        </g>
        <g transform="matrix(75,0,0,75,419.381,108.421)">
            <path d="M0.549,-0.667L0.557,-0.505L0.546,-0.505C0.542,-0.532 0.535,-0.555 0.525,-0.573C0.515,-0.591 0.501,-0.606 0.482,-0.62C0.467,-0.632 0.449,-0.639 0.428,-0.644C0.407,-0.649 0.38,-0.651 0.345,-0.651L0.233,-0.651L0.233,-0.358L0.263,-0.358C0.292,-0.358 0.315,-0.36 0.33,-0.364C0.345,-0.368 0.357,-0.375 0.366,-0.385C0.375,-0.395 0.382,-0.406 0.386,-0.418C0.391,-0.431 0.395,-0.451 0.397,-0.476L0.409,-0.475L0.407,-0.213L0.396,-0.213C0.393,-0.238 0.388,-0.259 0.382,-0.274C0.377,-0.289 0.369,-0.302 0.359,-0.313C0.349,-0.323 0.336,-0.331 0.321,-0.336C0.305,-0.341 0.285,-0.343 0.261,-0.343L0.233,-0.343L0.233,-0.231C0.233,-0.187 0.235,-0.154 0.237,-0.134C0.239,-0.114 0.243,-0.097 0.25,-0.083C0.261,-0.06 0.278,-0.042 0.3,-0.031C0.323,-0.021 0.353,-0.015 0.39,-0.015C0.429,-0.015 0.462,-0.02 0.488,-0.03C0.515,-0.04 0.536,-0.055 0.553,-0.076C0.564,-0.09 0.574,-0.106 0.581,-0.124C0.589,-0.142 0.595,-0.166 0.602,-0.195L0.613,-0.194L0.606,-0L0.024,-0L0.024,-0.011C0.042,-0.012 0.057,-0.015 0.069,-0.019C0.081,-0.023 0.091,-0.03 0.1,-0.04C0.11,-0.05 0.117,-0.063 0.121,-0.079C0.125,-0.095 0.126,-0.12 0.126,-0.153L0.126,-0.513C0.126,-0.546 0.125,-0.571 0.121,-0.587C0.117,-0.603 0.11,-0.617 0.1,-0.627C0.091,-0.636 0.081,-0.643 0.069,-0.647C0.058,-0.652 0.043,-0.654 0.024,-0.655L0.024,-0.667L0.549,-0.667Z" style="fill:rgb(21,100,97);fill-rule:nonzero;"/>
        </g>
        <g transform="matrix(75,0,0,75,466.109,108.421)">
            <path d="M0.233,-0.326L0.233,-0.153C0.233,-0.12 0.235,-0.095 0.239,-0.079C0.243,-0.063 0.25,-0.05 0.26,-0.04C0.269,-0.03 0.279,-0.024 0.29,-0.019C0.302,-0.015 0.317,-0.012 0.336,-0.011L0.336,-0L0.024,-0L0.024,-0.011C0.043,-0.012 0.058,-0.015 0.069,-0.019C0.081,-0.024 0.091,-0.03 0.1,-0.04C0.111,-0.05 0.118,-0.063 0.121,-0.079C0.125,-0.095 0.126,-0.12 0.126,-0.153L0.126,-0.513C0.126,-0.547 0.125,-0.571 0.121,-0.587C0.118,-0.603 0.111,-0.617 0.1,-0.627C0.091,-0.636 0.081,-0.643 0.069,-0.647C0.058,-0.652 0.042,-0.654 0.024,-0.655L0.024,-0.667L0.259,-0.667C0.299,-0.667 0.325,-0.666 0.337,-0.666C0.387,-0.664 0.427,-0.657 0.456,-0.646C0.488,-0.632 0.513,-0.613 0.53,-0.587C0.548,-0.561 0.557,-0.531 0.557,-0.497C0.557,-0.446 0.538,-0.406 0.5,-0.375C0.488,-0.366 0.475,-0.358 0.46,-0.353C0.446,-0.347 0.428,-0.341 0.404,-0.336C0.423,-0.328 0.438,-0.319 0.447,-0.311C0.455,-0.304 0.462,-0.295 0.468,-0.285C0.474,-0.275 0.483,-0.257 0.496,-0.23C0.525,-0.171 0.546,-0.127 0.561,-0.1C0.576,-0.072 0.589,-0.052 0.599,-0.04C0.607,-0.03 0.615,-0.023 0.622,-0.019C0.63,-0.015 0.64,-0.013 0.654,-0.011L0.654,-0L0.492,-0C0.484,-0.018 0.478,-0.029 0.476,-0.034L0.442,-0.112C0.421,-0.158 0.401,-0.2 0.38,-0.235C0.359,-0.271 0.34,-0.295 0.323,-0.308C0.314,-0.315 0.305,-0.319 0.294,-0.322C0.284,-0.325 0.272,-0.326 0.257,-0.326L0.233,-0.326ZM0.233,-0.337L0.252,-0.337C0.292,-0.337 0.321,-0.339 0.338,-0.344C0.356,-0.348 0.372,-0.358 0.388,-0.372C0.422,-0.405 0.439,-0.445 0.439,-0.493C0.439,-0.519 0.434,-0.543 0.424,-0.565C0.414,-0.588 0.4,-0.607 0.383,-0.622C0.369,-0.633 0.353,-0.64 0.334,-0.645C0.315,-0.649 0.288,-0.651 0.253,-0.651L0.233,-0.651L0.233,-0.337Z" style="fill:rgb(21,100,97);fill-rule:nonzero;"/>
        </g>
        <g transform="matrix(75,0,0,75,514.669,108.421)">
            <path d="M0.549,-0.667L0.557,-0.505L0.546,-0.505C0.542,-0.532 0.535,-0.555 0.525,-0.573C0.515,-0.591 0.501,-0.606 0.482,-0.62C0.467,-0.632 0.449,-0.639 0.428,-0.644C0.407,-0.649 0.38,-0.651 0.345,-0.651L0.233,-0.651L0.233,-0.358L0.263,-0.358C0.292,-0.358 0.315,-0.36 0.33,-0.364C0.345,-0.368 0.357,-0.375 0.366,-0.385C0.375,-0.395 0.382,-0.406 0.386,-0.418C0.391,-0.431 0.395,-0.451 0.397,-0.476L0.409,-0.475L0.407,-0.213L0.396,-0.213C0.393,-0.238 0.388,-0.259 0.382,-0.274C0.377,-0.289 0.369,-0.302 0.359,-0.313C0.349,-0.323 0.336,-0.331 0.321,-0.336C0.305,-0.341 0.285,-0.343 0.261,-0.343L0.233,-0.343L0.233,-0.231C0.233,-0.187 0.235,-0.154 0.237,-0.134C0.239,-0.114 0.243,-0.097 0.25,-0.083C0.261,-0.06 0.278,-0.042 0.3,-0.031C0.323,-0.021 0.353,-0.015 0.39,-0.015C0.429,-0.015 0.462,-0.02 0.488,-0.03C0.515,-0.04 0.536,-0.055 0.553,-0.076C0.564,-0.09 0.574,-0.106 0.581,-0.124C0.589,-0.142 0.595,-0.166 0.602,-0.195L0.613,-0.194L0.606,-0L0.024,-0L0.024,-0.011C0.042,-0.012 0.057,-0.015 0.069,-0.019C0.081,-0.023 0.091,-0.03 0.1,-0.04C0.11,-0.05 0.117,-0.063 0.121,-0.079C0.125,-0.095 0.126,-0.12 0.126,-0.153L0.126,-0.513C0.126,-0.546 0.125,-0.571 0.121,-0.587C0.117,-0.603 0.11,-0.617 0.1,-0.627C0.091,-0.636 0.081,-0.643 0.069,-0.647C0.058,-0.652 0.043,-0.654 0.024,-0.655L0.024,-0.667L0.549,-0.667Z" style="fill:rgb(21,100,97);fill-rule:nonzero;"/>
        </g>
    </g>
</svg>
